<svg width="900" height="600" transform="translate(450, 0)"><g transform="translate(450,300)"><g><g id="ticks"><path d="M 297.5101280523714,-18.95548318166835 l 9.989546742602414,-0.4571169186996901" style="stroke: black; stroke-width: 1px; fill: none;"></path><text x="322.48399490887743" y="-20.098275478417573" font-size="10" style="text-anchor: middle; dominant-baseline: central;">2003</text><path d="M 287.5463852561623,-78.52233206831734 l 9.59756291775051,-2.8083422227036907" style="stroke: black; stroke-width: 1px; fill: none;"></path><text x="311.5402925505386" y="-85.54318762507657" font-size="10" style="text-anchor: middle; dominant-baseline: central;">2004</text><path d="M 253.94661976110294,-128.35939080898325 l 8.660254037844386,-5.000000000000001" style="stroke: black; stroke-width: 1px; fill: none;"></path><text x="275.5972548557139" y="-140.85939080898325" font-size="10" style="text-anchor: middle; dominant-baseline: central;">2005</text><path d="M 208.2334310136032,-163.0158496582824 l 7.250138499829975,-6.887342864507557" style="stroke: black; stroke-width: 1px; fill: none;"></path><text x="226.35877726317813" y="-180.2342068195513" font-size="10" style="text-anchor: middle; dominant-baseline: central;">2006</text><path d="M 160.00805115763526,-184.52491668555436 l 5.4654051463023094,-8.37432663482696" style="stroke: black; stroke-width: 1px; fill: none;"></path><text x="173.67156402339103" y="-205.46073327262175" font-size="10" style="text-anchor: middle; dominant-baseline: central;">2007</text><path d="M 113.50371893068916,-196.63917257444393 l 3.4300399942366844,-9.393339429507314" style="stroke: black; stroke-width: 1px; fill: none;"></path><text x="122.07881891628087" y="-220.12252114821223" font-size="10" style="text-anchor: middle; dominant-baseline: central;">2008</text><path d="M 69.08686098863174,-202.30646474906774 l 1.2567953928344218,-9.920708913205253" style="stroke: black; stroke-width: 1px; fill: none;"></path><text x="72.22884947071779" y="-227.10823703208086" font-size="10" style="text-anchor: middle; dominant-baseline: central;">2009</text><path d="M 26.302081075273883,-203.11803066715913 l -0.9202300833754716,-9.957568809385691" style="stroke: black; stroke-width: 1px; fill: none;"></path><text x="24.001505866835203" y="-228.01195269062336" font-size="10" style="text-anchor: middle; dominant-baseline: central;">2010</text><path d="M -16.22127349506335,-199.73037440310233 l -3.0053933991588053,-9.537694192848326" style="stroke: black; stroke-width: 1px; fill: none;"></path><text x="-23.734756992960364" y="-223.57460988522314" font-size="10" style="text-anchor: middle; dominant-baseline: central;">2011</text><path d="M -59.78463933300633,-191.95504971773852 l -4.915118559151869,-8.708708833660753" style="stroke: black; stroke-width: 1px; fill: none;"></path><text x="-72.07243573088601" y="-213.7268218018904" font-size="10" style="text-anchor: middle; dominant-baseline: central;">2012</text><path d="M -105.52995378759086,-178.80829348797027 l -6.582954063199163,-7.527596947353759" style="stroke: black; stroke-width: 1px; fill: none;"></path><text x="-121.98733894558876" y="-197.62728585635466" font-size="10" style="text-anchor: middle; dominant-baseline: central;">2013</text><path d="M -153.80544846538083,-158.52289183491646 l -7.951560770432048,-6.064048261196978" style="stroke: black; stroke-width: 1px; fill: none;"></path><text x="-173.68435039146095" y="-173.6830124879089" font-size="10" style="text-anchor: middle; dominant-baseline: central;">2014</text><path d="M -203.72520544995902,-128.38770750155385 l -8.98794046299167,-4.383711467890775" style="stroke: black; stroke-width: 1px; fill: none;"></path><text x="-226.1950566074382" y="-139.34698617128078" font-size="10" style="text-anchor: middle; dominant-baseline: central;">2015</text><path d="M -251.07295369351183,-85.43809266948718 l -9.668233886044593,-2.554457579357905" style="stroke: black; stroke-width: 1px; fill: none;"></path><text x="-275.2435384086233" y="-91.82423661788194" font-size="10" style="text-anchor: middle; dominant-baseline: central;">2016</text><path d="M -286.56513922745614,-28.600936585012217 l -9.979492705161096,-0.6400979203500589" style="stroke: black; stroke-width: 1px; fill: none;"></path><text x="-311.5138709903589" y="-30.201181385887363" font-size="10" style="text-anchor: middle; dominant-baseline: central;">2017</text><path d="M -297.40309627178584,36.8971896221953 l -9.917160601105628,1.2844943020030255" style="stroke: black; stroke-width: 1px; fill: none;"></path><text x="-322.19599777454994" y="40.10842537720286" font-size="10" style="text-anchor: middle; dominant-baseline: central;">2018</text><path d="M -292.2101579940896,65.3415345046971 l -9.774527625339058,2.1115420198242787" style="stroke: black; stroke-width: 1px; fill: none;"></path><text x="-316.64647705743727" y="70.6203895542578" font-size="10" style="text-anchor: middle; dominant-baseline: central;">1989</text><path d="M -259.11027646857224,122.89643083827893 l -9.189289457700575,3.9442311370649996" style="stroke: black; stroke-width: 1px; fill: none;"></path><text x="-282.0835001128237" y="132.75700868094142" font-size="10" style="text-anchor: middle; dominant-baseline: central;">1990</text><path d="M 270.8016277883537,-108.4612489435634 l 9.131190231965359,-4.076930824488004" style="stroke: black; stroke-width: 1px; fill: none;"></path><text x="293.6296033682671" y="-118.65357600478342" font-size="10" style="text-anchor: middle; dominant-baseline: central;">2034</text><path d="M 273.4831269640736,-104.61637232179729A 300,200 -9.43 0 0 -297.34386087243644,16.52357893783499L -267.41693936464173,14.43088472551123A 270,170 -9.43 0 1 245.8679813605004,-92.89443846711907 Z" style="stroke: none; fill: blue; opacity: 0.3;"></path><text x="-241.97905608301622" y="12.652094645036035" font-size="10" transform="rotate(-4,-241.97905608301622,12.652094645036035)" style="fill: blue; text-anchor: middle; dominant-baseline: central;">Cassini</text><path d="M 64.9088382363243,-202.5786081780771A 300,200 -9.43 0 0 61.48689566688261,-202.7696884840588L 58.87222338445286,-172.88384754130644A 270,170 -9.43 0 1 61.77298433829467,-172.7429513170289 Z" style="stroke: none; fill: red; opacity: 0.8;"></path><text x="56.649751944387575" y="-147.48088273996692" font-size="10" transform="rotate(-445,56.649751944387575,-147.48088273996692)" style="fill: red; text-anchor: middle; dominant-baseline: central;">Pioneer 11</text><path d="M 16.936831033509318,-202.72582884980795A 300,200 -9.43 0 0 13.48196810245268,-202.53049742019107L 18.175002053659604,-172.89984720233693A 270,170 -9.43 0 1 21.11202406231128,-173.01778678756085 Z" style="stroke: none; fill: red; opacity: 0.8;"></path><text x="22.16408091218549" y="-147.71379451716092" font-size="10" transform="rotate(81,22.16408091218549,-147.71379451716092)" style="fill: red; text-anchor: middle; dominant-baseline: central;">Voyager 1</text><path d="M -18.032254835890885,-199.49468468941183A 300,200 -9.43 0 0 -21.59380477608687,-199.00929384073754L -11.82676014237217,-170.64373657275803A 270,170 -9.43 0 1 -8.761745004642464,-170.96298920055722 Z" style="stroke: none; fill: red; opacity: 0.8;"></path><text x="-3.524772203714674" y="-146.53301289497546" font-size="10" transform="rotate(71,-3.524772203714674,-146.53301289497546)" style="fill: red; text-anchor: middle; dominant-baseline: central;">Voyager 2</text><path d="M 253.94661976110294,-128.35939080898325A 300,200 -9.43 0 0 250.85046112877782,-131.42573595503097L 225.13544210771445,-115.97459370772935A 270,170 -9.43 0 1 227.96585764756978,-113.35939080898325 Z" style="stroke: none; fill: rgb(255, 127, 14); opacity: 0.8;"></path><text x="203.2776759398106" y="-102.84112279752297" font-size="10" transform="rotate(-391,203.2776759398106,-102.84112279752297)" style="fill: rgb(255, 127, 14); text-anchor: middle; dominant-baseline: central;">Huygens</text><path d="M -281.06827173645473,92.13024507360564A 300,200 -9.43 0 0 -278.0685007858948,97.40082031540102L -249.5368052970402,88.1303104841526A 270,170 -9.43 0 1 -252.37912905756366,83.35909393192354 Z" style="stroke: none; fill: purple; opacity: 0.8;"></path><text x="-225.28486413151376" y="80.25037712759145" font-size="10" transform="rotate(-18,-225.28486413151376,80.25037712759145)" style="fill: purple; text-anchor: middle; dominant-baseline: central;">28 Sgr Occ.</text><path d="M 291.1044194400827,-68.88525436751485A 300,200 -9.43 0 0 289.6525094518898,-73.0902969889421L 260.67473466321775,-65.32572563586649A 270,170 -9.43 0 1 261.99554765180284,-61.627597499524825 Z" style="stroke: none; fill: purple; opacity: 0.8;"></path><text x="236.0436260928465" y="-58.72583998575222" font-size="10" transform="rotate(-375,236.0436260928465,-58.72583998575222)" style="fill: purple; text-anchor: middle; dominant-baseline: central;">TYC ** Occ.</text><path d="M 268.3330915975157,-111.79840877588265A 300,200 -9.43 0 0 265.6183954445333,-115.27228759203504L 238.65457405555827,-102.12115318836271A 270,170 -9.43 0 1 241.1438579864162,-99.11986092366169 Z" style="stroke: none; fill: rgb(255, 127, 14); opacity: 0.8;"></path><text x="215.73532587492952" y="-90.94268894524124" font-size="10" transform="rotate(-386,215.73532587492952,-90.94268894524124)" style="fill: rgb(255, 127, 14); text-anchor: middle; dominant-baseline: central;">DragonFly</text><text x="-163.73374327498152" y="18.181702000300582" font-size="10" transform="rotate(-9,-163.73374327498152,18.181702000300582)" style="text-anchor: middle; dominant-baseline: central;">10.07 ua</text><text x="-160.1458376990554" y="37.97201033376688" font-size="10" transform="rotate(-9,-160.1458376990554,37.97201033376688)" style="text-anchor: middle; dominant-baseline: central;">Aphelion</text><text x="-155.32183433655598" y="49.89407690924989" font-size="10" transform="rotate(-9,-155.32183433655598,49.89407690924989)" style="text-anchor: middle; dominant-baseline: central;">1988/08/31 -- 2018/04/07</text><text x="148.71167966250448" y="-16.499711573578107" font-size="10" transform="rotate(-9,148.71167966250448,-16.499711573578107)" style="text-anchor: middle; dominant-baseline: central;">9.01 ua</text><text x="142.45513406380024" y="-41.1387946293592" font-size="10" transform="rotate(-9,142.45513406380024,-41.1387946293592)" style="text-anchor: middle; dominant-baseline: central;">Perihelion</text><text x="146.5220982497437" y="-30.951528617433752" font-size="10" transform="rotate(-9,146.5220982497437,-30.951528617433752)" style="text-anchor: middle; dominant-baseline: central;">2003/07/21 -- 2032/11/21</text><text x="44.391892909493116" y="-271.65069149344885" font-size="12" transform="rotate(0,44.391892909493116,-271.65069149344885)" style="text-anchor: middle; dominant-baseline: central;">Vernal</text><text x="44.391892909493116" y="-257.0841997572645" font-size="12" transform="rotate(0,44.391892909493116,-257.0841997572645)" style="text-anchor: middle; dominant-baseline: central;">Equinox</text><text x="38.65685905141189" y="-89.3877180266103" font-size="10" transform="rotate(90,38.65685905141189,-89.3877180266103)" style="text-anchor: middle; dominant-baseline: central;">1980/02/22 -- 2009/07/30</text><text x="-338.2991464949983" y="-14.052809791500287" font-size="12" transform="rotate(0,-338.2991464949983,-14.052809791500287)" style="text-anchor: middle; dominant-baseline: central;">Summer</text><text x="-338.79242394999636" y="-0.6844057209907071" font-size="12" transform="rotate(0,-338.79242394999636,-0.6844057209907071)" style="text-anchor: middle; dominant-baseline: central;">Solstice</text><text x="-100.8657145661654" y="-12.44542027882804" font-size="10" transform="rotate(0,-100.8657145661654,-12.44542027882804)" style="text-anchor: middle; dominant-baseline: central;">1987/11/25 -- 2017/05/14</text><text x="44.39189290949309" y="242.8690487154734" font-size="12" transform="rotate(0,44.39189290949309,242.8690487154734)" style="text-anchor: middle; dominant-baseline: central;">Autumnal</text><text x="44.39189290949308" y="256.8825985632098" font-size="12" transform="rotate(0,44.39189290949308,256.8825985632098)" style="text-anchor: middle; dominant-baseline: central;">Equinox</text><text x="37.4158777664703" y="92.38875151088963" font-size="10" transform="rotate(90,37.4158777664703,92.38875151088963)" style="text-anchor: middle; dominant-baseline: central;">1995/11/07 -- 2025/04/24</text><text x="357.8169601659475" y="-12.843767750340035" font-size="12" transform="rotate(0,357.8169601659475,-12.843767750340035)" style="text-anchor: middle; dominant-baseline: central;">Winter</text><text x="356.2626313075644" y="-1.9291888632982914" font-size="12" transform="rotate(0,356.2626313075644,-1.9291888632982914)" style="text-anchor: middle; dominant-baseline: central;">Solstice</text><text x="191.14786961506942" y="0.3182419844051374" font-size="10" transform="rotate(0,191.14786961506942,0.3182419844051374)" style="text-anchor: middle; dominant-baseline: central;">2002/10/23 -- 2032/03/26</text><text x="117.99030507942993" y="-95.08408496399935" font-size="10" transform="rotate(0,117.99030507942993,-95.08408496399935)" style="text-anchor: middle; dominant-baseline: central;">Northern</text><text x="118.54300963323621" y="-81.52402957499083" font-size="10" transform="rotate(0,118.54300963323621,-81.52402957499083)" style="text-anchor: middle; dominant-baseline: central;">Winter</text><text x="-28.673687534756475" y="-94.44908084066348" font-size="10" transform="rotate(0,-28.673687534756475,-94.44908084066348)" style="text-anchor: middle; dominant-baseline: central;">Northern</text><text x="-27.30823243706586" y="-79.07303819780677" font-size="10" transform="rotate(0,-27.30823243706586,-79.07303819780677)" style="text-anchor: middle; dominant-baseline: central;">Spring</text><text x="-29.840315889663124" y="81.09358867135016" font-size="10" transform="rotate(0,-29.840315889663124,81.09358867135016)" style="text-anchor: middle; dominant-baseline: central;">Northern</text><text x="-32.04583531784508" y="97.83459432274957" font-size="10" transform="rotate(0,-32.04583531784508,97.83459432274957)" style="text-anchor: middle; dominant-baseline: central;">Summer</text><text x="117.7773300982494" y="80.08444556254926" font-size="10" transform="rotate(0,117.7773300982494,80.08444556254926)" style="text-anchor: middle; dominant-baseline: central;">Northern</text><text x="114.99470251802688" y="97.30005694170069" font-size="10" transform="rotate(0,114.99470251802688,97.30005694170069)" style="text-anchor: middle; dominant-baseline: central;">Autumn</text><text x="44.39189290949309" y="216.84388471253442" font-size="10" transform="rotate(0,44.39189290949309,216.84388471253442)" style="text-anchor: middle; dominant-baseline: central;">|</text><text x="64.38378952999578" y="221.13551115249598" font-size="10" transform="rotate(0,64.38378952999578,221.13551115249598)" style="text-anchor: middle; dominant-baseline: central;">26.73°</text></g><line x1="44.391892909493116" y1="195.20969498034344" x2="44.391892909493116" y2="-203.3026018161181" style="stroke: black; stroke-width: 1px; stroke-dasharray: 1px, 10px;"></line><line x1="296.3370737403955" y1="-7.372912851247782" x2="-293.45461525538525" y2="-7.372912851247782" style="stroke: black; stroke-width: 1px; stroke-dasharray: 1px, 10px;"></line></g><path d="M 44.391892909493116,-7.372912851247782  L 44.391892909493116,-203.3026018161181" class="Titan" style="stroke: gray;"></path><path d="M 44.391892909493116,-7.372912851247782  L -293.45461525538525,-7.372912851247802" class="Titan" style="stroke: gray;"></path><path d="M 44.391892909493116,-7.372912851247782  L 44.391892909493116,195.20969498034344" class="Titan" style="stroke: gray;"></path><path d="M 44.391892909493116,-7.372912851247782  L 296.33707374039545,-7.372912851247736" class="Titan" style="stroke: gray;"></path><g id="orbit" transform="rotate(-9.43)"><ellipse rx="300" ry="200" cx="0" cy="0" style="fill: none; stroke: black; stroke-width: 1px; stroke-dasharray: 1px, 3px;"></ellipse><line x1="300" y1="0" x2="-300" y2="0" style="stroke: black; stroke-width: 1px; stroke-dasharray: 2px, 5px;"></line></g><circle id="Sun" cx="44.391892909493116" cy="-7.372912851247782" r="25" style="fill: yellow;"></circle><g class="Titan" transform="translate(44.391892909493116,-203.3026018161181)"><text x="15" y="-30" font-size="12" style="text-anchor: middle;">N</text><text x="-15" y="37.5" font-size="12" style="text-anchor: middle;">S</text><line x1="0" y1="30" x2="0" y2="-30" transform="rotate(26.73)" style="stroke: black; stroke-width: 1px; fill: none;"></line><circle cx="0" cy="0" r="15" style="fill: gold;"></circle><path d="M 0,15 A 15,15 0 1 1 0,-15 A  15,15 0 0 0 0,15" class="shadow" style="fill: dimgray;"></path><path d="M 15,0 A 15,4.5 0 0 1 -15,0" transform="rotate(26.73)" style="stroke: black; stroke-width: 1px; fill: none;"></path></g><g class="Titan" transform="translate(-293.45461525538525,-7.372912851247802)"><text x="15" y="-30" font-size="12" style="text-anchor: middle;">N</text><text x="-15" y="37.5" font-size="12" style="text-anchor: middle;">S</text><line x1="0" y1="30" x2="0" y2="-30" transform="rotate(26.73)" style="stroke: black; stroke-width: 1px; fill: none;"></line><circle cx="0" cy="0" r="15" style="fill: gold;"></circle><path d="M 0,15 A 15,15 0 1 1 0,-15 A  9.18485099360515e-16,15 0 1 0 0,15" class="shadow" style="fill: dimgray;"></path><path d="M 15,0 A 15,4.5 0 0 1 -15,0" transform="rotate(26.73)" style="stroke: black; stroke-width: 1px; fill: none;"></path></g><g class="Titan" transform="translate(44.391892909493116,195.20969498034344)"><text x="15" y="-30" font-size="12" style="text-anchor: middle;">N</text><text x="-15" y="37.5" font-size="12" style="text-anchor: middle;">S</text><line x1="0" y1="30" x2="0" y2="-30" transform="rotate(26.73)" style="stroke: black; stroke-width: 1px; fill: none;"></line><circle cx="0" cy="0" r="15" style="fill: gold;"></circle><path d="M 0,15 A 15,15 0 1 1 0,-15 A  15,15 0 0 1 0,15" class="shadow" style="fill: dimgray;"></path><path d="M 15,0 A 15,4.5 0 0 1 -15,0" transform="rotate(26.73)" style="stroke: black; stroke-width: 1px; fill: none;"></path></g><g class="Titan" transform="translate(296.33707374039545,-7.372912851247736)"><text x="15" y="-30" font-size="12" style="text-anchor: middle;">N</text><text x="-15" y="37.5" font-size="12" style="text-anchor: middle;">S</text><line x1="0" y1="30" x2="0" y2="-30" transform="rotate(26.73)" style="stroke: black; stroke-width: 1px; fill: none;"></line><circle cx="0" cy="0" r="15" style="fill: gold;"></circle><path d="M 0,15 A 15,15 0 0 0 0,-15 A  2.7554552980815444e-15,15 0 1 0 0,15" class="shadow" style="fill: dimgray;"></path><path d="M 15,0 A 15,4.5 0 0 1 -15,0" transform="rotate(26.73)" style="stroke: black; stroke-width: 1px; fill: none;"></path></g></g></svg>
