<svg version="1.1" viewBox="0 0 764.92 539.77" xmlns="http://www.w3.org/2000/svg">
 <path d="m673.73 258.07 9.9895-0.45712" fill="none" stroke="#000" stroke-width="1px"/>
 <text x="698.70306" y="256.92731" dominant-baseline="central" font-size="10px" text-anchor="middle">2003</text>
 <path d="m663.77 198.5 9.5976-2.8083" fill="none" stroke="#000" stroke-width="1px"/>
 <text x="687.75934" y="191.48239" dominant-baseline="central" font-size="10px" text-anchor="middle">2004</text>
 <path d="m630.17 148.67 8.6602-5" fill="none" stroke="#000" stroke-width="1px"/>
 <text x="651.81635" y="136.16618" dominant-baseline="central" font-size="10px" text-anchor="middle">2005</text>
 <path d="m584.45 114.01 7.2501-6.8873" fill="none" stroke="#000" stroke-width="1px"/>
 <text x="602.57782" y="96.791367" dominant-baseline="central" font-size="10px" text-anchor="middle">2006</text>
 <path d="m536.23 92.501 5.4654-8.3743" fill="none" stroke="#000" stroke-width="1px"/>
 <text x="549.89062" y="71.564835" dominant-baseline="central" font-size="10px" text-anchor="middle">2007</text>
 <path d="m489.72 80.386 3.43-9.3933" fill="none" stroke="#000" stroke-width="1px"/>
 <text x="498.29791" y="56.903046" dominant-baseline="central" font-size="10px" text-anchor="middle">2008</text>
 <path d="m445.31 74.719 1.2568-9.9207" fill="none" stroke="#000" stroke-width="1px"/>
 <text x="448.44794" y="49.917343" dominant-baseline="central" font-size="10px" text-anchor="middle">2009</text>
 <path d="m402.52 73.908-0.92023-9.9576" fill="none" stroke="#000" stroke-width="1px"/>
 <text x="400.22061" y="49.013626" dominant-baseline="central" font-size="10px" text-anchor="middle">2010</text>
 <path d="m360 77.295-3.0054-9.5377" fill="none" stroke="#000" stroke-width="1px"/>
 <text x="352.48434" y="53.450958" dominant-baseline="central" font-size="10px" text-anchor="middle">2011</text>
 <path d="m316.43 85.071-4.9151-8.7087" fill="none" stroke="#000" stroke-width="1px"/>
 <text x="304.14667" y="63.298752" dominant-baseline="central" font-size="10px" text-anchor="middle">2012</text>
 <path d="m270.69 98.217-6.583-7.5276" fill="none" stroke="#000" stroke-width="1px"/>
 <text x="254.23177" y="79.398285" dominant-baseline="central" font-size="10px" text-anchor="middle">2013</text>
 <path d="m222.41 118.5-7.9516-6.064" fill="none" stroke="#000" stroke-width="1px"/>
 <text x="202.53474" y="103.34256" dominant-baseline="central" font-size="10px" text-anchor="middle">2014</text>
 <path d="m172.49 148.64-8.9879-4.3837" fill="none" stroke="#000" stroke-width="1px"/>
 <text x="150.02405" y="137.67859" dominant-baseline="central" font-size="10px" text-anchor="middle">2015</text>
 <path d="m125.15 191.59-9.6682-2.5545" fill="none" stroke="#000" stroke-width="1px"/>
 <text x="100.97556" y="185.20134" dominant-baseline="central" font-size="10px" text-anchor="middle">2016</text>
 <path d="m89.654 248.42-9.9795-0.64009" fill="none" stroke="#000" stroke-width="1px"/>
 <text x="64.705208" y="246.8244" dominant-baseline="central" font-size="10px" text-anchor="middle">2017</text>
 <path d="m78.816 313.92-9.9172 1.2845" fill="none" stroke="#000" stroke-width="1px"/>
 <text x="54.023109" y="317.134" dominant-baseline="central" font-size="10px" text-anchor="middle">2018</text>
 <path d="m260.81 473.3-6.1731 7.8672" fill="none" stroke="#000" stroke-width="1px"/>
 <text x="245.38165" y="492.97034" dominant-baseline="central" font-size="10px" text-anchor="middle">2022</text>
 <path d="m314.74 479.8-4.4994 8.9306" fill="none" stroke="#000" stroke-width="1px"/>
 <text x="303.4877" y="502.12192" dominant-baseline="central" font-size="10px" text-anchor="middle">2023</text>
 <path d="m363.68 479.5-2.6185 9.6511" fill="none" stroke="#000" stroke-width="1px"/>
 <text x="357.12952" y="503.62601" dominant-baseline="central" font-size="10px" text-anchor="middle">2024</text>
 <path d="m408.55 474.39-0.58784 9.9827" fill="none" stroke="#000" stroke-width="1px"/>
 <text x="407.08505" y="499.35135" dominant-baseline="central" font-size="10px" text-anchor="middle"/>
 <path d="m450.46 465.4 1.5074 9.8857" fill="none" stroke="#000" stroke-width="1px"/>
 <text x="454.22858" y="490.11664" dominant-baseline="central" font-size="10px" text-anchor="middle">2026</text>
 <path d="m490.76 452.59 3.5804 9.337" fill="none" stroke="#000" stroke-width="1px"/>
 <text x="499.71066" y="475.9296" dominant-baseline="central" font-size="10px" text-anchor="middle">2027</text>
 <path d="m530.57 435.28 5.531 8.3311" fill="none" stroke="#000" stroke-width="1px"/>
 <text x="544.39539" y="456.10443" dominant-baseline="central" font-size="10px" text-anchor="middle">2028</text>
 <path d="m570.61 411.95 7.2549 6.8823" fill="none" stroke="#000" stroke-width="1px"/>
 <text x="588.7464" y="429.15146" dominant-baseline="central" font-size="10px" text-anchor="middle">2029</text>
 <path d="m610.07 380.45 8.6322 5.0483" fill="none" stroke="#000" stroke-width="1px"/>
 <text x="631.64594" y="393.0704" dominant-baseline="central" font-size="10px" text-anchor="middle">2030</text>
 <path d="m645.72 338.13 9.5671 2.9104" fill="none" stroke="#000" stroke-width="1px"/>
 <text x="669.64014" y="345.40848" dominant-baseline="central" font-size="10px" text-anchor="middle">2031</text>
 <path d="m669.74 284.15 9.9831 0.58087" fill="none" stroke="#000" stroke-width="1px"/>
 <text x="694.69342" y="285.60016" dominant-baseline="central" font-size="10px" text-anchor="middle">2032</text>
 <path d="m671.41 223.71 9.8363-1.8018" fill="none" stroke="#000" stroke-width="1px"/>
 <text x="695.99713" y="219.2092" dominant-baseline="central" font-size="10px" text-anchor="middle">2033</text>
 <path d="m647.02 168.56 9.1312-4.0769" fill="none" stroke="#000" stroke-width="1px"/>
 <text x="669.84869" y="158.37199" dominant-baseline="central" font-size="10px" text-anchor="middle">2034</text>
 <path d="m649.7 172.41a200 300 80.57 0 0-570.83 121.14l29.927-2.0927a170 270 80.57 0 1 513.28-107.33z" fill="#00f" opacity=".3"/>
 <text transform="rotate(-4)" x="113.70615" y="298.33612" dominant-baseline="central" fill="#0000ff" font-size="10px" text-anchor="middle">Cassini</text>
 <path d="m285.79 477.26a200 300 80.57 0 0 386.77-207.61h-30a170 270 80.57 0 1-340.43 182.45z" fill="#008000" opacity=".3"/>
 <path d="m441.13 74.447a200 300 80.57 0 0-3.4219-0.19108l-2.6147 29.886a170 270 80.57 0 1 2.9008 0.1409z" fill="#f00" opacity=".8"/>
 <text transform="rotate(-85)" x="-91.324745" y="442.51224" dominant-baseline="central" fill="#ff0000" font-size="10px" text-anchor="middle">Pioneer 11</text>
 <path d="m393.16 74.3a200 300 80.57 0 0-3.4549 0.19533l4.693 29.631a170 270 80.57 0 1 2.937-0.11794z" fill="#f00" opacity=".8"/>
 <text transform="rotate(81)" x="190.0406" y="-373.24957" dominant-baseline="central" fill="#ff0000" font-size="10px" text-anchor="middle">Voyager 1</text>
 <path d="m358.19 77.531a200 300 80.57 0 0-3.5615 0.48539l9.767 28.366a170 270 80.57 0 1 3.065-0.31925z" fill="#f00" opacity=".8"/>
 <text transform="rotate(71)" x="244.72055" y="-309.90518" dominant-baseline="central" fill="#ff0000" font-size="10px" text-anchor="middle">Voyager 2</text>
 <g fill="#ff7f0e">
  <path d="m630.17 148.67a200 300 80.57 0 0-3.0962-3.0664l-25.715 15.451a170 270 80.57 0 1 2.8304 2.6152z" opacity=".8"/>
  <text transform="rotate(-31)" x="407.01407" y="447.7681" dominant-baseline="central" font-size="10px" text-anchor="middle">Huygens</text>
  <path d="m644.55 165.23a200 300 80.57 0 0-2.7147-3.4739l-26.964 13.151a170 270 80.57 0 1 2.4893 3.0013z" opacity=".8"/>
  <text transform="rotate(-26)" x="450.47171" y="426.74594" dominant-baseline="central" font-size="10px" text-anchor="middle">DragonFly</text>
 </g>
 <g fill="#008000">
  <path d="m304.49 479.14a200 300 80.57 0 0 4.5617 0.32466l14.084-26.488a170 270 80.57 0 1-4.1015-0.0748z" opacity=".8"/>
  <text transform="rotate(-62)" x="-222.74861" y="497.97171" dominant-baseline="central" font-size="10px" text-anchor="middle">JWST</text>
  <path d="m417.06 472.91a200 300 80.57 0 0 3.5478-0.67064v-30a170 270 80.57 0 1-3.0242 0.67521z" opacity=".8"/>
  <text transform="rotate(90)" x="416.73526" y="-420.61096" dominant-baseline="central" font-size="10px" text-anchor="middle"/>
 </g>
 <path d="m578.22 406.66a200 300 80.57 0 0 3.042-2.2052l-22.981-19.284a170 270 80.57 0 1-2.702 1.807z" fill="#800080" opacity=".8"/>
 <g font-size="10px" text-anchor="middle">
  <text transform="rotate(40)" x="649.74823" y="-63.797615" dominant-baseline="central" fill="#800080">ELT</text>
  <text transform="rotate(-9)" x="163.68871" y="324.81284" dominant-baseline="central">10 AU</text>
  <text transform="rotate(-9)" x="164.13655" y="344.92075" dominant-baseline="central">Aphelion</text>
  <text transform="rotate(-9)" x="167.03615" y="357.45068" dominant-baseline="central">1988-09 | 2018-04</text>
  <text transform="rotate(-9)" x="477.71277" y="339.43564" dominant-baseline="central">9 AU</text>
  <text transform="rotate(-9)" x="475.38766" y="314.12115" dominant-baseline="central">Perihelion</text>
  <text transform="rotate(-9)" x="477.81091" y="324.81921" dominant-baseline="central">2003-08 | 2032-12</text>
 </g>
 <g text-anchor="middle">
  <text x="420.61099" y="5.3748779" dominant-baseline="central" font-family="Montserrat" font-size="12px">Vernal</text>
  <text x="420.61099" y="19.941376" dominant-baseline="central" font-family="Montserrat" font-size="12px">Equinox</text>
  <text transform="rotate(90)" x="187.63786" y="-414.87595" dominant-baseline="central" font-size="10px">1980-03 | 2009-08 | 2039-01</text>
  <text x="25.919964" y="262.97278" dominant-baseline="central" font-size="12px"><tspan font-family="Montserrat">Summer</tspan></text>
  <text x="25.426678" y="280.34119" dominant-baseline="central" font-family="Montserrat" font-size="12px">Solstice</text>
  <text x="275.35336" y="264.58017" dominant-baseline="central" font-size="10px">1987-12 | 2017-05 | 2046-10</text>
  <text x="420.61099" y="519.89459" dominant-baseline="central" font-family="Montserrat" font-size="12px">Autumnal</text>
  <text x="420.61099" y="533.90814" dominant-baseline="central" font-family="Montserrat" font-size="12px">Equinox</text>
  <text transform="rotate(90)" x="369.41434" y="-413.63498" dominant-baseline="central" font-size="10px">1995-11 | 2025-05</text>
  <text x="744.03601" y="264.18182" dominant-baseline="central" font-family="Montserrat" font-size="12px">Winter</text>
  <text x="742.48169" y="279.09637" dominant-baseline="central" font-family="Montserrat" font-size="12px">Solstice</text>
 </g>
 <g font-size="10px" text-anchor="middle">
  <text x="567.36694" y="277.34381" dominant-baseline="central">2002-11 | 2032-04</text>
  <text x="494.20938" y="181.9415" dominant-baseline="central">Northern</text>
  <text x="494.76208" y="195.50154" dominant-baseline="central">Winter</text>
  <text x="347.54541" y="182.57649" dominant-baseline="central">Northern</text>
  <text x="348.91086" y="197.95255" dominant-baseline="central">Spring</text>
  <text x="346.37878" y="358.11917" dominant-baseline="central">Northern</text>
  <text x="344.17325" y="374.86017" dominant-baseline="central">Summer</text>
  <text x="493.99643" y="357.11002" dominant-baseline="central">Northern</text>
  <text x="491.21381" y="374.32562" dominant-baseline="central">Autumn</text>
  <text x="420.61099" y="493.86948" dominant-baseline="central">|</text>
  <text x="436.60287" y="506.1611" dominant-baseline="central">26.73°</text>
 </g>
 <line x1="420.61" x2="420.61" y1="472.24" y2="73.723" stroke="#000" stroke-dasharray="1px, 10px" stroke-width="1px"/>
 <line x1="672.56" x2="82.764" y1="269.65" y2="269.65" stroke="#000" stroke-dasharray="1px, 10px" stroke-width="1px"/>
 <g stroke="#808080">
  <path class="Titan" d="m420.61 269.65v-195.93"/>
  <path class="Titan" d="m420.61 269.65h-337.85"/>
  <path class="Titan" d="m420.61 269.65v202.58"/>
  <path class="Titan" d="m420.61 269.65h251.95"/>
 </g>
 <ellipse transform="rotate(-9.43)" cx="325.75" cy="334.92" rx="300" ry="200" fill="none" stroke="#000" stroke-dasharray="1px, 3px" stroke-width="1px"/>
 <line x1="672.16" x2="80.273" y1="227.87" y2="326.18" stroke="#000" stroke-dasharray="2px, 5px" stroke-width="1px"/>
 <circle id="Sun" cx="420.61" cy="269.65" r="25" fill="#ff0"/>
 <text x="435.61099" y="43.722977" font-size="12px" text-anchor="middle">N</text>
 <text x="405.61099" y="111.22298" font-size="12px" text-anchor="middle">S</text>
 <line x1="407.12" x2="434.1" y1="100.52" y2="46.929" fill="none" stroke="#000" stroke-width="1px"/>
 <circle cx="420.61" cy="73.723" r="15" fill="#ffd700"/>
 <path class="shadow" d="m420.61 88.723a15 15 0 1 1 0-30 15 15 0 0 0 0 30" fill="#696969"/>
 <path d="m434.01 80.47a15 4.5 26.73 0 1-26.794-13.494" fill="none" stroke="#000" stroke-width="1px"/>
 <text x="97.764473" y="239.65266" font-size="12px" text-anchor="middle">N</text>
 <text x="67.764473" y="307.15268" font-size="12px" text-anchor="middle">S</text>
 <line x1="69.271" x2="96.258" y1="296.45" y2="242.86" fill="none" stroke="#000" stroke-width="1px"/>
 <circle cx="82.764" cy="269.65" r="15" fill="#ffd700"/>
 <path class="shadow" d="m82.764 284.65a15 15 0 1 1 0-30 0 0 0 0 0 0 30" fill="#696969"/>
 <path d="m96.162 276.4a15 4.5 26.73 0 1-26.794-13.494" fill="none" stroke="#000" stroke-width="1px"/>
 <text x="435.61099" y="442.23526" font-size="12px" text-anchor="middle">N</text>
 <text x="405.61099" y="509.73526" font-size="12px" text-anchor="middle">S</text>
 <line x1="407.12" x2="434.1" y1="499.03" y2="445.44" fill="none" stroke="#000" stroke-width="1px"/>
 <circle cx="420.61" cy="472.24" r="15" fill="#ffd700"/>
 <path class="shadow" d="m420.61 487.24a15 15 0 1 1 0-30 15 15 0 0 1 0 30" fill="#696969"/>
 <path d="m434.01 478.98a15 4.5 26.73 0 1-26.794-13.494" fill="none" stroke="#000" stroke-width="1px"/>
 <text x="687.55615" y="239.65266" font-size="12px" text-anchor="middle">N</text>
 <text x="657.55615" y="307.15268" font-size="12px" text-anchor="middle">S</text>
 <line x1="659.06" x2="686.05" y1="296.45" y2="242.86" fill="none" stroke="#000" stroke-width="1px"/>
 <circle cx="672.56" cy="269.65" r="15" fill="#ffd700"/>
 <path class="shadow" d="m672.56 284.65a15 15 0 0 0 0-30 0 0 0 0 0 0 30" fill="#696969"/>
 <path d="m685.95 276.4a15 4.5 26.73 0 1-26.794-13.494" fill="none" stroke="#000" stroke-width="1px"/>
</svg>
